# xmcd
#
# Track frame offsets:
#	150
#	14349
#	32061
#	43668
#	58660
#	68359
#	80042
#	95910
#	109768
#	129251
#	144955
#	159185
#	171951
#	187549
#
# Disc length: 2762 seconds
#
# Revision: 0
# Processed by: cddbd v1.4PL0 Copyright (c) Steve Scherf et al.
# Submitted via: dBpowerAMP V4.0
#
DISCID=ac0ac80e
DTITLE=Rivers and McCoy - Saturdaynight
DYEAR=1900
DGENRE=
TTITLE0=Hillbilly shoes
TTITLE1=Live laugh love
TTITLE2=Rub it in
TTITLE3=Here comes my baby
TTITLE4=Burning the roadhouse
TTITLE5=Beer thirty
TTITLE6=God blessed Texas
TTITLE7=The X files
TTITLE8=Who's cheeting who
TTITLE9=Living on love
TTITLE10=Even if it's wrong
TTITLE11=Saturdaynight
TTITLE12=Baby's got my number
TTITLE13=Dance the night away
EXTD=
EXTT0=
EXTT1=
EXTT2=
EXTT3=
EXTT4=
EXTT5=
EXTT6=
EXTT7=
EXTT8=
EXTT9=
EXTT10=
EXTT11=
EXTT12=
EXTT13=
PLAYORDER=
